<svg width="256" height="256" xmlns="http://www.w3.org/2000/svg" stroke="null" style="vector-effect: non-scaling-stroke;">

 <g stroke="null">
  <title stroke="null">Layer 1</title>
  <rect stroke="null" y="-3.5" x="-2" id="svg_1" fill="none" height="256" width="256"/>
  <path stroke="currentColor" id="svg_2" stroke-width="16" stroke-linejoin="round" stroke-linecap="round" fill="none" d="m45.5,181.3044c64,-64.31681 112,64.31681 176,0l0,-139.23899c-64,64.31681 -112,-64.31681 -176,0l0,194.93459"/>
  <path stroke="currentColor" id="svg_3" stroke-width="16" stroke-linejoin="round" stroke-linecap="round" fill="none" d="m47,92.5c64,-55.43 112,55.43 176,0"/>
  <path stroke="currentColor" id="svg_5" d="m102.5,33.02l0,130" opacity="undefined" stroke-linecap="round" stroke-linejoin="round" stroke-width="16" fill="none"/>
  <line stroke="currentColor" id="svg_6" stroke-width="16" stroke-linejoin="round" stroke-linecap="round" fill="none" y2="190.48" x2="164.5" y1="63.48001" x1="164.5"/>
  <path stroke="currentColor" id="svg_7" stroke-width="16" stroke-linejoin="round" stroke-linecap="round" fill="none" d="m45,136c64,-55.43 112,55.43 176,0"/>
  <line stroke-linecap="round" stroke-linejoin="round" id="svg_8" y2="58.99998" x2="85.50001" y1="45.99998" x1="66.00001" stroke-width="6" stroke="currentColor" fill="none"/>
  <line transform="rotate(-90 75.75 52.5)" stroke-linecap="round" stroke-linejoin="round" id="svg_9" y2="58.99998" x2="85.50001" y1="45.99998" x1="66.00001" stroke-width="6" stroke="currentColor" fill="none"/>
  <ellipse ry="8" rx="8" id="svg_11" cy="129.99997" cx="192.49999" stroke-width="6" stroke="currentColor" fill="none"/>
  <line stroke-linecap="round" stroke-linejoin="round" id="svg_12" y2="90.49997" x2="203.49999" y1="77.49998" x1="183.99999" stroke-width="6" stroke="currentColor" fill="none"/>
  <line transform="rotate(-90 193.75 84)" stroke-linecap="round" stroke-linejoin="round" id="svg_13" y2="90.49997" x2="203.49999" y1="77.49998" x1="183.99999" stroke-width="6" stroke="currentColor" fill="none"/>
  <path id="svg_14" d="m76.5,150.49997c-4.41989,0 -8,-3.58011 -8,-8c0,-4.41989 3.58011,-8 8,-8c4.41989,0 8,3.58011 8,8c0,4.41989 -3.58011,8 -8,8z" opacity="undefined" stroke-width="6" stroke="currentColor" fill="none"/>
 </g>
</svg>